<svg width="56" height="56" viewBox="0 0 56 56" fill="none" xmlns="http://www.w3.org/2000/svg">
<path d="M0 12C0 5.37258 5.37258 0 12 0H44C50.6274 0 56 5.37258 56 12V44C56 50.6274 50.6274 56 44 56H12C5.37258 56 0 50.6274 0 44V12Z" fill="#EBF9F4"/>
<<<<<<< HEAD
<path d="M27.5864 31.4233C28.0389 31.2177 28.574 31.3751 28.8423 31.7935L34.1753 40.1118C34.4733 40.5767 34.3383 41.1955 33.8735 41.4937C33.4087 41.7917 32.7898 41.6567 32.4917 41.1919L27.6929 33.7075V42.0005C27.6927 42.5468 27.2546 42.9902 26.7104 42.9995H26.6753C26.1313 42.99 25.693 42.5467 25.6929 42.0005V34.481L25.0122 34.7896L20.8384 41.1978C20.5369 41.6605 19.9173 41.7912 19.4546 41.4897C18.9918 41.1883 18.8611 40.5687 19.1626 40.106L23.4956 33.4546C23.5994 33.2952 23.7463 33.1681 23.9194 33.0894L27.5864 31.4233ZM33.7183 12.772C34.9797 11.8946 36.7201 12.2621 37.519 13.5747L41.2876 19.7671C42.1101 21.1183 41.5827 22.8846 40.1538 23.563L16.4702 34.8022C15.2149 35.3979 13.7128 34.9294 13.0181 33.7261L11.5435 31.1733C10.8506 29.9732 11.1929 28.4423 12.3306 27.6509L33.7183 12.772ZM13.4722 29.2925C13.1878 29.4903 13.1027 29.8733 13.2759 30.1733L14.7495 32.7261C14.9232 33.0268 15.299 33.1444 15.6128 32.9956L19.3979 31.1987L16.9146 26.8979L13.4722 29.2925ZM18.562 25.7515L21.2104 30.3384L32.8267 24.8257L29.0181 18.478L18.562 25.7515ZM35.8101 14.6147C35.6103 14.2866 35.1752 14.1942 34.8599 14.4136L30.6636 17.3335L34.6421 23.9644L39.2954 21.7563C39.6526 21.5868 39.7851 21.1449 39.5796 20.8071L35.8101 14.6147Z" fill="#08872B"/>
=======
<path d="M27.5862 31.4227C28.0387 31.2171 28.5738 31.3754 28.842 31.7938L34.175 40.1122C34.4731 40.5771 34.3382 41.1959 33.8733 41.494C33.4084 41.792 32.7895 41.6562 32.4914 41.1913L27.6926 33.7069V41.9999C27.6926 42.5522 27.2449 42.9999 26.6926 42.9999C26.1405 42.9997 25.6926 42.552 25.6926 41.9999V34.4803L25.012 34.7899L20.8381 41.1981C20.5366 41.6607 19.917 41.7915 19.4543 41.4901C18.9916 41.1887 18.8609 40.5691 19.1623 40.1063L23.4954 33.454C23.5991 33.2948 23.7462 33.1684 23.9192 33.0897L27.5862 31.4227ZM33.718 12.7723C34.9795 11.8948 36.7198 12.2624 37.5188 13.5751L41.2883 19.7675C42.1104 21.1186 41.5823 22.8841 40.1536 23.5624L16.47 34.8026C15.2147 35.398 13.7125 34.9296 13.0178 33.7264L11.5432 31.1727C10.8507 29.9727 11.1929 28.4416 12.3303 27.6503L33.718 12.7723ZM13.4719 29.2928C13.188 29.4907 13.1027 29.8729 13.2756 30.1727L14.7502 32.7264C14.924 33.027 15.2988 33.1437 15.6125 32.995L19.3977 31.1991L16.9143 26.8983L13.4719 29.2928ZM18.5618 25.7518L21.2102 30.3387L32.8264 24.8261L29.0178 18.4784L18.5618 25.7518ZM35.8098 14.6141C35.61 14.2865 35.1758 14.1949 34.8606 14.4139L30.6633 17.3339L34.6418 23.9647L39.2961 21.7557C39.6532 21.5861 39.7849 21.1442 39.5793 20.8065L35.8098 14.6141Z" fill="#08872B"/>
>>>>>>> a216b1786c20951f041c24f450d2c310931048db
</svg>
