<svg width="20" height="20" viewBox="0 0 20 20" fill="none" xmlns="http://www.w3.org/2000/svg">
<path d="M5.80837 3.51645C6.05241 3.2725 6.4481 3.27252 6.69216 3.51645C6.9362 3.76049 6.93614 4.15615 6.69216 4.40023L1.71755 9.37484L6.69216 14.3504C6.93603 14.5945 6.93617 14.9902 6.69216 15.2342C6.44813 15.478 6.05238 15.478 5.80837 15.2342L0.391374 9.81723C0.147501 9.57322 0.147573 9.17749 0.391374 8.93344L5.80837 3.51645ZM12.0584 3.51645C12.3024 3.2725 12.6981 3.27252 12.9422 3.51645L18.3591 8.93344C18.603 9.1775 18.6031 9.57321 18.3591 9.81723L12.9422 15.2342C12.6981 15.478 12.3024 15.478 12.0584 15.2342C11.8144 14.9902 11.8145 14.5945 12.0584 14.3504L17.033 9.37484L12.0584 4.40023C11.8144 4.15615 11.8143 3.76048 12.0584 3.51645Z" fill="#08872B"/>
</svg>
